<?xml version="1.0" encoding="UTF-8"?>
<svg width="108.56mm" height="114.57mm" version="1.1" viewBox="0 0 108.56 114.57" xmlns="http://www.w3.org/2000/svg" xmlns:cc="http://creativecommons.org/ns#" xmlns:dc="http://purl.org/dc/elements/1.1/" xmlns:rdf="http://www.w3.org/1999/02/22-rdf-syntax-ns#">
 <metadata>
  <rdf:RDF>
   <cc:Work rdf:about="">
    <dc:format>image/svg+xml</dc:format>
    <dc:type rdf:resource="http://purl.org/dc/dcmitype/StillImage"/>
   </cc:Work>
  </rdf:RDF>
 </metadata>
 <g transform="translate(-5.4991 1.574)">
  <rect x="5.5491" y="-1.524" width="108.46" height="114.47" fill="#fff" stroke="#000" stroke-linecap="round" stroke-linejoin="round" stroke-width=".1" style="paint-order:fill markers stroke"/>
  <g transform="translate(-302.32 66.463)">
   <g fill="none" stroke="#000">
    <path d="m394.52-35.462 0.163-21.869-13.735-6.0373-21.621 3.7023 0.62842 24.226 21.726-1.2655-0.50161-26.328" stroke-width=".265"/>
    <g stroke-width=".26458px">
     <path d="m359.96-35.44 4.7298 2.6049"/>
     <path d="m383.93-34.581 1.3513 37.669 11.171 0.44301-1.9361-38.992-40.498 2.8612"/>
     <path d="m394.52-35.462 6.1373 1.1538 0.4333 36.411-4.6346 1.4272"/>
     <path d="m364.69-32.835-1.3972 68.26 20.802 4.351 5.3801-3.4191-0.23191-33.162"/>
     <path d="m384.09 39.776 1.1956-36.688"/>
     <path d="m373.74 3.0832-1.5622 34.078"/>
     <path d="m353.95-32.482-29.131 14.151 2.9746 8.7554"/>
     <path d="m324.81-18.331 12.131 0.9633 27.74-15.468"/>
     <path d="m336.95-17.368 2.4959 8.6912 24.907-11.772"/>
    </g>
   </g>
   <g transform="matrix(.81947 0 0 -.81947 43.019 53.16)">
    <path d="m333.33 62.976 40.566 3.3612 3e-5 41.977-40.566-3.3612z" fill="#fff" stroke="#000" stroke-linecap="round" stroke-linejoin="round" stroke-width=".5"/>
    <path d="m333.33 62.976 5.0707 0.42015v5.2472l-5.0707-0.42015z" style="paint-order:fill markers stroke"/>
    <path d="m338.4 63.396 5.0707 0.42015v5.2472l-5.0707-0.42015z" fill="#fff" style="paint-order:fill markers stroke"/>
    <path d="m343.47 63.817 5.0707 0.42015v5.2472l-5.0707-0.42015z" style="paint-order:fill markers stroke"/>
    <path d="m348.54 64.237 5.0707 0.42015v5.2472l-5.0707-0.42015z" fill="#fff" style="paint-order:fill markers stroke"/>
    <path d="m353.61 64.657 5.0707 0.42015v5.2472l-5.0707-0.42015z" style="paint-order:fill markers stroke"/>
    <path d="m358.68 65.077 5.0707 0.42015v5.2472l-5.0707-0.42015z" fill="#fff" style="paint-order:fill markers stroke"/>
    <path d="m363.75 65.497 5.0707 0.42015v5.2472l-5.0707-0.42015z" fill="#fff" style="paint-order:fill markers stroke"/>
    <path d="m368.82 65.917 5.0707 0.42015v5.2472l-5.0707-0.42015z" style="paint-order:fill markers stroke"/>
    <path d="m333.33 68.223 5.0707 0.42015v5.2472l-5.0707-0.42015z" fill="#fff" style="paint-order:fill markers stroke"/>
    <path d="m338.4 68.644 5.0707 0.42015v5.2472l-5.0707-0.42015z" style="paint-order:fill markers stroke"/>
    <path d="m343.47 69.064 5.0707 0.42015v5.2472l-5.0707-0.42015z" fill="#fff" style="paint-order:fill markers stroke"/>
    <path d="m348.54 69.484 5.0707 0.42015v5.2472l-5.0707-0.42015z" style="paint-order:fill markers stroke"/>
    <path d="m353.61 69.904 5.0707 0.42015v5.2472l-5.0707-0.42015z" fill="#fff" style="paint-order:fill markers stroke"/>
    <path d="m358.68 70.324 5.0707 0.42015v5.2472l-5.0707-0.42015z" style="paint-order:fill markers stroke"/>
    <path d="m363.75 70.744 5.0707 0.42015v5.2472l-5.0707-0.42015z" style="paint-order:fill markers stroke"/>
    <path d="m368.82 71.165 5.0707 0.42015v5.2472l-5.0707-0.42015z" fill="#fff" style="paint-order:fill markers stroke"/>
    <g>
     <path d="m333.33 73.471 5.0707 0.42015v5.2472l-5.0707-0.42015z" style="paint-order:fill markers stroke"/>
     <path d="m338.4 73.891 5.0707 0.42015v5.2472l-5.0707-0.42015z" style="paint-order:fill markers stroke"/>
     <path d="m343.47 74.311 5.0707 0.42015v5.2472l-5.0707-0.42015z" style="paint-order:fill markers stroke"/>
     <path d="m348.54 74.731 5.0707 0.42015v5.2472l-5.0707-0.42015z" style="paint-order:fill markers stroke"/>
     <path d="m353.61 75.151 5.0707 0.42015v5.2472l-5.0707-0.42015z" style="paint-order:fill markers stroke"/>
    </g>
    <path d="m358.68 75.571 5.0707 0.42015v5.2472l-5.0707-0.42015z" fill="#fff" style="paint-order:fill markers stroke"/>
    <path d="m363.75 75.992 5.0707 0.42015v5.2472l-5.0707-0.42015z" style="paint-order:fill markers stroke"/>
    <path d="m368.82 76.412 5.0707 0.42015v5.2472l-5.0707-0.42015z" fill="#fff" style="paint-order:fill markers stroke"/>
    <path d="m333.33 78.718 5.0707 0.42015v5.2472l-5.0707-0.42015z" style="paint-order:fill markers stroke"/>
    <path d="m338.4 79.138 5.0707 0.42015v5.2472l-5.0707-0.42015z" style="paint-order:fill markers stroke"/>
    <path d="m343.47 79.558 5.0707 0.42015v5.2472l-5.0707-0.42015z" fill="#fff" style="paint-order:fill markers stroke"/>
    <g>
     <path d="m348.54 79.978 5.0707 0.42015v5.2472l-5.0707-0.42015z" style="paint-order:fill markers stroke"/>
     <path d="m353.61 80.398 5.0707 0.42015v5.2472l-5.0707-0.42015z" style="paint-order:fill markers stroke"/>
     <path d="m358.68 80.819 5.0707 0.42015v5.2472l-5.0707-0.42015z" style="paint-order:fill markers stroke"/>
     <path d="m363.75 81.239 5.0707 0.42015v5.2472l-5.0707-0.42015z" style="paint-order:fill markers stroke"/>
     <path d="m368.82 81.659 5.0707 0.42015v5.2472l-5.0707-0.42015z" style="paint-order:fill markers stroke"/>
     <path d="m333.33 83.965 5.0707 0.42015v5.2472l-5.0707-0.42015z" style="paint-order:fill markers stroke"/>
    </g>
    <path d="m338.4 84.385 5.0707 0.42015v5.2472l-5.0707-0.42015z" fill="#fff" style="paint-order:fill markers stroke"/>
    <path d="m343.47 84.805 5.0707 0.42015v5.2472l-5.0707-0.42015z" style="paint-order:fill markers stroke"/>
    <path d="m348.54 85.225 5.0707 0.42015v5.2472l-5.0707-0.42015z" fill="#fff" style="paint-order:fill markers stroke"/>
    <path d="m353.61 85.646 5.0707 0.42015v5.2472l-5.0707-0.42015z" style="paint-order:fill markers stroke"/>
    <path d="m358.68 86.066 5.0707 0.42015v5.2472l-5.0707-0.42015z" fill="#fff" style="paint-order:fill markers stroke"/>
    <path d="m363.75 86.486 5.0707 0.42015v5.2472l-5.0707-0.42015z" fill="#fff" style="paint-order:fill markers stroke"/>
    <g>
     <path d="m368.82 86.906 5.0707 0.42015v5.2472l-5.0707-0.42015z" style="paint-order:fill markers stroke"/>
     <path d="m333.33 89.212 5.0707 0.42015v5.2472l-5.0707-0.42015z" style="paint-order:fill markers stroke"/>
     <path d="m338.4 89.632 5.0707 0.42015v5.2472l-5.0707-0.42015z" style="paint-order:fill markers stroke"/>
     <path d="m343.47 90.052 5.0707 0.42015v5.2472l-5.0707-0.42015z" style="paint-order:fill markers stroke"/>
    </g>
    <path d="m348.54 90.473 5.0707 0.42015v5.2472l-5.0707-0.42015z" fill="#fff" style="paint-order:fill markers stroke"/>
    <g>
     <path d="m353.61 90.893 5.0707 0.42015v5.2472l-5.0707-0.42015z" style="paint-order:fill markers stroke"/>
     <path d="m358.68 91.313 5.0707 0.42015v5.2472l-5.0707-0.42015z" style="paint-order:fill markers stroke"/>
     <path d="m363.75 91.733 5.0707 0.42015v5.2472l-5.0707-0.42015z" style="paint-order:fill markers stroke"/>
    </g>
    <path d="m368.82 92.153 5.0707 0.42015v5.2472l-5.0707-0.42014z" fill="#fff" style="paint-order:fill markers stroke"/>
    <path d="m333.33 94.459 5.0707 0.42015v5.2472l-5.0707-0.42014z" fill="#fff" style="paint-order:fill markers stroke"/>
    <path d="m338.4 94.879 5.0707 0.42015v5.2472l-5.0707-0.42015z" style="paint-order:fill markers stroke"/>
    <path d="m343.47 95.3 5.0707 0.42015v5.2472l-5.0707-0.42015z" fill="#fff" style="paint-order:fill markers stroke"/>
    <path d="m348.54 95.72 5.0707 0.42015v5.2472l-5.0707-0.42014z" style="paint-order:fill markers stroke"/>
    <path d="m353.61 96.14 5.0707 0.42015v5.2472l-5.0707-0.42015z" style="paint-order:fill markers stroke"/>
    <path d="m358.68 96.56 5.0707 0.42015v5.2472l-5.0707-0.42014z" fill="#fff" style="paint-order:fill markers stroke"/>
    <g>
     <path d="m363.75 96.98 5.0707 0.42015v5.2472l-5.0707-0.42015z" style="paint-order:fill markers stroke"/>
     <path d="m368.82 97.4 5.0707 0.42015v5.2472l-5.0707-0.42014z" style="paint-order:fill markers stroke"/>
     <path d="m333.33 99.706 5.0707 0.42015v5.2472l-5.0707-0.42014z" style="paint-order:fill markers stroke"/>
    </g>
    <g fill="#fff">
     <path d="m338.4 100.13 5.0707 0.42015v5.2472l-5.0707-0.42015z" style="paint-order:fill markers stroke"/>
     <path d="m343.47 100.55 5.0707 0.42014v5.2472l-5.0707-0.42015z" style="paint-order:fill markers stroke"/>
     <path d="m348.54 100.97 5.0707 0.42015v5.2472l-5.0707-0.42014z" style="paint-order:fill markers stroke"/>
     <path d="m353.61 101.39 5.0707 0.42014v5.2472l-5.0707-0.42015z" style="paint-order:fill markers stroke"/>
    </g>
    <path d="m358.68 101.81 5.0707 0.42015v5.2472l-5.0707-0.42014z" style="paint-order:fill markers stroke"/>
    <path d="m363.75 102.23 5.0707 0.42014v5.2472l-5.0707-0.42015z" style="paint-order:fill markers stroke"/>
    <path d="m368.82 102.65 5.0707 0.42015v5.2472l-5.0707-0.42014z" fill="#fff" style="paint-order:fill markers stroke"/>
   </g>
   <g fill="none" stroke="#000">
    <path d="m381.68-36.706 4.2442 1.8761" stroke-width=".26458px"/>
    <path d="m362.08-48.089 5.0972-0.53452v2.4384l-5.0972 0.63576z" stroke-width=".265"/>
    <path d="m373.01-49.001 5.0972-0.53452v2.4384l-5.0972 0.63576z" stroke-width=".265"/>
    <path d="m364.29 3.0726 20.997 0.015105" stroke-width=".26458px"/>
   </g>
  </g>
 </g>
 <script/>
</svg>
