<?xml version="1.0" encoding="UTF-8"?>
<svg width="130.07mm" height="124.5mm" version="1.1" viewBox="0 0 130.07 124.5" xmlns="http://www.w3.org/2000/svg" xmlns:cc="http://creativecommons.org/ns#" xmlns:dc="http://purl.org/dc/elements/1.1/" xmlns:rdf="http://www.w3.org/1999/02/22-rdf-syntax-ns#">
 <metadata>
  <rdf:RDF>
   <cc:Work rdf:about="">
    <dc:format>image/svg+xml</dc:format>
    <dc:type rdf:resource="http://purl.org/dc/dcmitype/StillImage"/>
   </cc:Work>
  </rdf:RDF>
 </metadata>
 <g transform="translate(-5.0094 -1.6846)">
  <g stroke="#000">
   <rect x="5.0594" y="1.7346" width="129.97" height="124.4" fill="#fff" stroke-linecap="round" stroke-linejoin="round" stroke-width=".1" style="paint-order:fill markers stroke"/>
   <g>
    <rect x="41.2" y="36.038" width="9.889" height="9.889" fill="#ffb380" stroke-linecap="round" stroke-linejoin="round" stroke-width=".5" style="paint-order:normal"/>
    <rect x="51.089" y="36.038" width="9.889" height="9.889" fill="#ffb380" stroke-linecap="round" stroke-linejoin="round" stroke-width=".5" style="paint-order:normal"/>
    <path d="m41.016 36.038c-0.0255-7.9891 4.9584-4.6704 4.9737-10.114 4e-3 5.4241 4.9695 2.6532 5.0998 10.114" fill="none"/>
   </g>
  </g>
  <text x="78.49247" y="44.761734" fill="#000000" font-family="sans-serif" font-size="10.583px" letter-spacing="0px" stroke-width=".26458" word-spacing="0px" style="line-height:1.25" xml:space="preserve"><tspan x="78.49247" y="44.761734" stroke-width=".26458">6 bit</tspan></text>
  <g fill="none" stroke="#000">
   <path d="m50.905 36.038c-0.0255-7.9891 4.9584-4.6704 4.9737-10.114 4e-3 5.4241 4.9695 2.6532 5.0998 10.114"/>
   <path d="m55.878 25.923v-12.533h8.818" stroke-linecap="round" stroke-linejoin="round"/>
   <path d="m45.989 25.923v-12.533h-8.818" stroke-linecap="round" stroke-linejoin="round"/>
  </g>
  <g>
   <text x="16.562441" y="15.143691" fill="#000000" font-family="sans-serif" font-size="6.8353px" letter-spacing="0px" stroke-width=".17088" word-spacing="0px" style="line-height:1.25" xml:space="preserve"><tspan x="16.562441" y="15.143691" stroke-width=".17088">0~31</tspan></text>
   <text x="66.35759" y="15.499892" fill="#000000" font-family="sans-serif" font-size="6.8353px" letter-spacing="0px" stroke-width=".17088" word-spacing="0px" style="line-height:1.25" xml:space="preserve"><tspan x="66.35759" y="15.499892" stroke-width=".17088">32~63</tspan></text>
   <g stroke="#000" stroke-linecap="round" stroke-linejoin="round" stroke-width=".5">
    <rect x="31.568" y="69.365" width="9.889" height="9.889" fill="#ffb380" style="paint-order:normal"/>
    <rect x="41.457" y="69.365" width="9.889" height="9.889" fill="#87deaa" style="paint-order:normal"/>
    <rect x="51.346" y="69.365" width="9.889" height="9.889" fill="#87deaa" style="paint-order:normal"/>
    <rect x="61.235" y="69.365" width="9.889" height="9.889" fill="#ffb380" style="paint-order:normal"/>
   </g>
   <text x="86.970161" y="77.811737" fill="#000000" font-family="sans-serif" font-size="10.583px" letter-spacing="0px" stroke-width=".26458" word-spacing="0px" style="line-height:1.25" xml:space="preserve"><tspan x="86.970161" y="77.811737" stroke-width=".26458">7 bit</tspan></text>
  </g>
  <g fill="none" stroke="#000" stroke-dasharray="1.05833, 1.05833" stroke-width=".26458">
   <path d="m41.2 45.926-9.632 23.438"/>
   <path d="m51.089 45.926-9.632 23.438"/>
   <path d="m51.089 45.926 10.146 23.438"/>
   <path d="m60.978 45.926 10.146 23.438"/>
  </g>
  <g>
   <g stroke="#000" stroke-linecap="round" stroke-linejoin="round" stroke-width=".5">
    <rect x="22.214" y="107.85" width="9.889" height="9.889" fill="#ffb380" style="paint-order:normal"/>
    <rect x="32.103" y="107.85" width="9.889" height="9.889" fill="#87deaa" style="paint-order:normal"/>
    <rect x="61.77" y="107.85" width="9.889" height="9.889" fill="#87deaa" style="paint-order:normal"/>
    <rect x="71.659" y="107.85" width="9.889" height="9.889" fill="#ffb380" style="paint-order:normal"/>
    <rect x="41.992" y="107.85" width="9.889" height="9.889" fill="#87aade" style="paint-order:normal"/>
    <rect x="51.881" y="107.85" width="9.889" height="9.889" fill="#87aade" style="paint-order:normal"/>
   </g>
   <text x="97.974327" y="115.34018" fill="#000000" font-family="sans-serif" font-size="10.583px" letter-spacing="0px" stroke-width=".26458" word-spacing="0px" style="line-height:1.25" xml:space="preserve"><tspan x="97.974327" y="115.34018" stroke-width=".26458">8 bit</tspan></text>
  </g>
  <g fill="none" stroke="#000" stroke-dasharray="1.05833, 1.05833" stroke-width=".26458">
   <path d="m31.568 79.254-9.3544 28.598"/>
   <path d="m51.346 79.254-9.3544 28.598"/>
   <path d="m51.346 79.254 10.424 28.598"/>
   <path d="m71.124 79.254 10.424 28.598"/>
  </g>
 </g>
</svg>
