<?xml version="1.0" encoding="UTF-8"?>
<!-- Created with Inkscape (http://www.inkscape.org/) -->
<svg width="119.46mm" height="119.76mm" version="1.1" viewBox="0 0 119.46 119.76" xmlns="http://www.w3.org/2000/svg">
 <g transform="translate(-63.071 -51.355)">
  <path d="m121.78 51.358c-3.576 0.0475-9.8043 0.67003-13.047 1.4619-5.4257 1.3249-14.627 5.438-16.617 7.428-2.9468 2.9469-0.72202 13.016 5.8245 26.359 0.21903 0.44646 0.42596 0.88242 0.6227 1.3074 0.25956-0.42214 0.52139-0.83898 0.78652-1.2392 1.4331-2.277 3.6553-4.9755 5.8627-7.3432-0.8941-2.6268-1.7792-5.4652-2.5322-8.2233-1.555-5.6957-1.5735-6.3663-0.21652-7.7261 2.4108-2.4159 10.422-6.8748 16.43-9.1452 3.0741-1.1616 5.5893-2.3092 5.5893-2.5497 0-0.25399-1.0777-0.3513-2.7032-0.3297zm8.1804 7.3076c-7.7134 0.0404-15.853 1.7354-18.413 4.2959-1.464 1.464-1.9625 4.5012-1.7782 12.021 2.3001-1.6439 6.0328-2.8764 10.369-3.3652 0.51702-2.5763 1.745-3.2605 5.997-4.6953 3.2417-1.0939 13.65-2.312 16.591-1.9415 7.2181 0.90932 13.061 1.0799 11.678 0.34106-3.9617-2.1177-11.786-5.0112-15.944-5.8963-2.5281-0.53812-5.4814-0.77547-8.4997-0.75964zm-51.442 15.43c-0.78576 2e-5 -6.2326 8.0513-8.9721 13.262-3.5244 6.7038-5.559 13.402-6.2141 20.455-0.60511 6.5143-0.0948 9.3134 0.96428 5.2901 2.1431-8.1415 12.686-26.158 14.989-25.614 0.84058 0.19843 11.262 7.4506 14.697 10.124 0.70536-2.1711 1.7708-4.6079 3.0143-6.951-1.9367-1.6447-4.5949-4.0305-7.6683-6.8978-5.7003-5.318-10.565-9.6687-10.81-9.6687zm46.874 0.5302c-3.5638-0.04898-7.1377 0.50739-10.546 1.6909-4.0675 1.4125-7.2085 4.5325-11.934 11.372-4.7251 6.8399-9.1058 20.623-11.327 26.721-1.0991 3.0178-1.4703 3.6095-1.5668 3.7 0.03488 0.0238 0.08793 0.16484 0.0863 0.74828-0.0047 1.6384 0.11401 2.2163 0.6966 3.3895 0.34397 0.69263 1.5398 2.0486 2.112 2.3947 0.62511 0.37811 0.66859 0.36707 1.4903-0.38395 0.41888-0.38283 1.2698-1.0364 1.8914-1.4526 1.8088-1.2113 3.4068-1.9338 7.0466-3.1853 2.5821-0.88781 4.2086-1.7139 5.6234-2.8556 1.7431-1.4067 3.0522-3.4248 3.7838-5.8332 0.11755-0.38702 0.22785-0.68941 0.24495-0.67231 0.0792 0.0792-0.1796 1.6763-0.39895 2.4629-1.0413 3.7342-3.6101 6.0837-8.6367 7.8993-3.1726 1.1459-3.671 1.3434-4.8974 1.941-3.5729 1.7412-6.0689 4.2195-7.7468 7.691-0.5798 1.1996-0.91504 2.1769-1.2702 3.7068-0.26329 1.1343-0.36912 4.3008-0.1881 5.6286 0.26431 1.9388 0.95013 4.1987 1.7777 5.8596 2.703 5.425 7.3885 9.0995 12.225 9.5865 3.7144 0.37404 6.9594-1.2007 8.3158-4.0349 0.56448-1.1795 0.71025-1.8498 0.70952-3.2628-6.8e-4 -1.3806-0.15946-2.1532-0.6749-3.2799-0.62409-1.3641-1.2745-2.1386-3.3832-4.0287-0.86882-0.77873-1.7916-1.6773-2.0505-1.9968-2.4564-3.0312-1.9274-6.4015 1.3446-8.5674 0.42856-0.2837 1.336-0.77889 2.0164-1.1007 4.9633-2.3474 7.305-5.6716 7.3205-10.392 7e-3 -2.2468-0.26959-3.2272-1.8232-6.4549-0.56019-1.1639-1.1508-2.5341-1.3126-3.0448-0.82118-2.5911-0.80475-6.0485 0.0424-8.9917 1.0932-3.798 3.0551-7.0828 5.9754-10.003 2.0671-2.0671 4.246-3.6047 7.2125-5.0912 2.4576-1.2314 5.2982-2.2334 8.863-3.1259 1.6444-0.41169 3.501-0.7768 3.575-0.7028 0.0197 0.0197-0.21768 0.13681-0.52762 0.25993-2.3302 0.92553-4.2327 2.2391-6.9717 4.8142-1.5155 1.4247-1.9369 1.905-1.2676 1.4433 0.45105-0.31114 2.3157-1.319 3.9744-2.1477 3.0784-1.5379 6.114-2.7451 9.2361-3.6737 0.74402-0.2214 0.84309-0.27558 0.7369-0.40359-0.17317-0.20864-0.73502-0.47449-1.2919-0.61082-0.28682-0.07022-0.90382-0.39848-1.5586-0.82941-5.0748-3.34-10.987-5.1025-16.927-5.1842zm-35.373 43.485c-0.03005-0.0205-0.04558 0.0428 0 0zm78.485-38.72c-0.29406 5e-5 -0.29301 0.24125 2e-3 0.5364 1.1034 1.1034 1.485 11.443 0.6382 17.29-0.94721 6.5401-3.3281 14.494-4.7697 15.936-1.5698 1.5697-5.8016 2.1745-10.985 1.8061 1.0311 3.3058 1.0265 8.0927-2.8365 8.6114-0.22014 0.23744-0.42668 0.49676-0.62787 0.76429 4.9449 0.5623 11.946 0.49987 17.038-0.21084l4.7113-0.65784 1.9828-5.9268c2.4934-7.4517 2.9029-13.701 1.3953-21.298-1.1407-5.7484-5.4547-16.85-6.5479-16.85zm-21.36 2.7978c-0.21147 1e-3 -2.8229 0.74637-4.0736 1.1627-2.3725 0.78975-5.7038 2.2176-8.0197 3.4375-6.6911 3.5247-13.49 8.8339-16.583 12.95-1.124 1.4955-2.183 3.4277-2.6588 4.8509-0.24343 0.7281-0.29762 0.37852-0.0879-0.56637 0.37633-1.6951 0.98757-3.0803 2.0758-4.7036 0.95486-1.4243 1.9967-2.6335 3.7284-4.3264 1.6483-1.6112 2.7534-2.5423 5.1087-4.3062 1.3926-1.0429 1.7044-1.3327 2.82-2.62 0.68995-0.79612 1.9108-2.1162 2.713-2.9332 0.80218-0.81693 1.4396-1.4852 1.4164-1.4852-0.0231 0-0.45846 0.13594-0.96738 0.30179-2.3838 0.77684-4.808 1.8986-6.8575 3.1729-4.6552 2.8946-8.4332 7.5333-9.9803 12.255-0.69897 2.1334-0.84161 3.0354-0.83561 5.3087 7e-3 2.8477 0.22673 3.7243 1.6598 6.6213 1.6147 3.2641 2.0162 4.6557 2.0252 7.0146 6e-3 1.5876-0.1225 2.4716-0.54364 3.7496-0.73877 2.2418-2.2336 4.261-4.299 5.8079-0.41979 0.31442-0.73548 0.57154-0.70228 0.57154 0.21609 0 2.576-1.0161 3.7569-1.6175 3.7818-1.9261 5.8685-4.4465 6.3376-7.6548 0.13293-0.90907 0.0649-2.5042-0.13798-3.2432-0.0735-0.26786-0.16435-0.59677-0.20205-0.7307-0.0669-0.23804-0.065-0.23892 0.0904-0.0486 0.2732 0.3345 0.78554 1.4328 0.97669 2.0939 0.25868 0.89451 0.23999 2.3228-0.0444 3.405-0.41286 1.5708-1.4008 3.1515-2.8133 4.501-1.7105 1.6342-3.753 2.7171-6.9851 3.7031-3.6776 1.1219-4.8667 1.6196-5.9361 2.4841-0.75489 0.61027-1.3706 1.4129-1.6128 2.1022-0.33558 0.95475-0.21189 2.3254 0.22583 2.5048 0.11729 0.0481 0.62952 0.24868 1.1384 0.44545 1.201 0.46438 2.5011 1.1939 4.0029 2.2469 2.0946 1.4686 3.4443 2.6129 7.0518 5.9784 3.6446 3.4002 5.3484 4.8071 7.6858 6.3474 2.3254 1.5323 4.3694 2.4986 6.1448 2.9042 0.97769 0.22341 2.5631 0.25747 2.6401 0.0568 0.029-0.0757-0.3023-0.70945-0.73639-1.4082-0.73632-1.1853-1.5298-2.276-4.163-5.7247-1.948-2.5513-2.5373-3.7971-2.7533-5.8224-0.33566-3.1473 1.2979-8.0523 3.653-10.969l0.6196-0.7674-0.84749-0.6537c-1.3015-1.0033-2.9016-2.4495-3.8256-3.4577-1.3769-1.5023-1.5606-1.7449-0.77153-1.0196 2.5154 2.3124 5.8375 4.5996 8.863 6.1009 2.5458 1.2633 3.6754 1.5947 5.2498 1.5405 0.93693-0.0323 1.0823-0.0636 1.5684-0.33538 0.59147-0.33065 1.0848-0.95563 1.2873-1.6309 0.0786-0.26229 0.11351-0.91204 0.0987-1.8443-0.0312-1.9631 0.11427-2.2805 1.2325-2.6882 0.30739-0.11208 0.65997-0.31148 0.78341-0.44287 0.29125-0.31002 0.36936-0.96582 0.17157-1.4392-0.16279-0.3896-0.13466-0.4677 0.16846-0.4687 0.33856-2e-3 1.1744-0.44198 1.3513-0.71211 0.21967-0.3353 0.21007-0.70462-0.0264-1.0366-0.37653-0.52878-0.41537-0.76934-0.19792-1.2185 0.10929-0.22575 0.31059-0.46169 0.44751-0.52399 0.15137-0.069 0.71453-0.10829 1.4366-0.10129 1.3223 0.0134 1.7828-0.10672 2.065-0.53744 0.21604-0.32971 0.16121-1.0532-0.23978-3.174-0.44867-2.3729-0.78651-5.0284-0.78651-6.1815 0-1.509 0.23813-3.0761 0.69194-4.5517 0.74463-2.4211 0.98562-3.623 1.108-5.5325 0.10584-1.6522 0.20853-2.0249 0.88883-3.2287 0.97712-1.7292 1.0488-1.9635 1.0558-3.4132 3e-3 -0.68012 0.0331-1.2062 0.0667-1.1689 0.21769 0.24166 0.4211 1.2195 0.4191 2.0159-2e-3 1.0004-0.16528 1.4511-0.97565 2.6991-0.66661 1.0266-0.72662 1.2952-0.81752 3.6804-0.0546 1.4316-0.12778 2.2468-0.23203 2.5766-0.0838 0.26535-0.14189 0.4927-0.12919 0.5054 0.09 0.09 1.2709-0.64592 1.635-1.0191 0.36431-0.3733 0.49007-0.60054 0.67231-1.2144 0.24931-0.83985 0.42129-1.0338 1.5565-1.7596 0.71875-0.45953 1.2122-1.0526 1.373-1.6495 0.0732-0.27034 0.0961-1.106 0.0682-2.4551-0.0372-1.8011-0.0684-2.1214-0.26148-2.6789-0.40482-1.1691-1.0341-1.9148-2.0547-2.4355-0.67849-0.3462-1.3183-0.48839-2.4836-0.55139-4.3694-0.23643-12.655 2.5242-20.195 6.7283-2.53 1.4106-2.971 1.6083-3.7502 1.681-0.3632 0.0339-0.64802 0.02171-0.64802-0.02739 0-0.10812 3.5549-2.2838 5.4054-3.3083 5.0421-2.7916 11.108-5.0604 15.858-5.9309 0.74015-0.13562 1.4961-0.2465 1.68-0.2465s0.33435-0.02264 0.33435-0.05064c0-0.17179-0.54219-0.82579-0.68471-0.82579-0.3552 0-2.5244 0.40279-3.698 0.68678-2.314 0.55995-6.1577 1.9451-9.2862 3.3466-2.8194 1.263-5.0437 2.4407-8.2946 4.3915-2.529 1.5176-2.677 1.5967-3.3114 1.7725-0.62631 0.17357-3.6478 0.29472-3.5037 0.14056 0.0552-0.05902 0.82251-0.32877 1.7048-0.59996 1.9355-0.59494 2.33-0.77384 4.3315-1.9647 4.5323-2.6966 7.5722-4.2383 11.298-5.7288 2.997-1.199 6.1519-2.2105 8.6067-2.76 0.60872-0.13628 1.1254-0.26659 1.1482-0.28939 0.0229-0.02289-0.30426-0.58396-0.72709-1.247-0.42284-0.66298-0.97626-1.5672-1.2299-2.0092-0.25364-0.44195-0.49057-0.80324-0.52607-0.80305zm-1.0061 0.63149c7e-3 -0.0015 0.0143-3.2e-4 0.0207 0.0036 0.0509 0.03146 0.20755 0.29185 0.34779 0.57826 0.14024 0.28641 0.53493 0.89353 0.87694 1.3493 0.34204 0.45574 0.62167 0.86877 0.62167 0.91777 0 0.04899-0.10381 0.18642-0.23047 0.30541l-0.22996 0.21601-0.64544-0.86661c-0.87145-1.1704-1.0782-1.6468-0.93896-2.1637 0.051-0.18946 0.12576-0.32919 0.17776-0.34003zm-2.0221 0.49609c0.057-0.0066 0.14097 0.15296 0.36484 0.57774 0.39643 0.75218 0.67378 1.1705 1.157 1.7451 0.17703 0.21052 0.32194 0.43263 0.32194 0.49403 0 0.06138-0.10521 0.21065-0.23358 0.33125l-0.23306 0.21911-0.58343-0.76636c-0.9761-1.2823-1.149-1.7534-0.89141-2.4309 0.0389-0.10222 0.0634-0.16605 0.0977-0.17002zm-1.9425 0.58033 0.31832 0.59531c0.17496 0.32747 0.53374 0.89046 0.79737 1.2511 0.26364 0.36064 0.54025 0.73957 0.61495 0.84233 0.11996 0.16517 0.10974 0.21483-0.0899 0.42736-0.12417 0.13219-0.26204 0.2403-0.30644 0.2403-0.12038 0-1.2371-1.5368-1.3999-1.9265-0.16729-0.40017-0.17985-0.78375-0.0377-1.1576zm-1.9699 0.82372c0.0358 0 0.20134 0.27393 0.36742 0.60875 0.16607 0.33481 0.56829 0.95267 0.894 1.3725 0.57437 0.7404 0.58753 0.76998 0.43822 0.99787-0.2155 0.32889-0.3563 0.29612-0.7643-0.1788-0.73481-0.85535-1.1203-1.5307-1.1193-1.9591 1e-3 -0.45359 0.0863-0.84129 0.18397-0.84129zm-2.0293 0.9431c0.0755-9e-3 0.19997 0.16963 0.39842 0.56948 0.17918 0.36104 0.58234 0.96274 0.89607 1.3369l0.57051 0.68006-0.1912 0.25632c-0.10512 0.14095-0.25241 0.2674-0.32711 0.2806-0.12747 0.0226-1.187-1.3043-1.45-1.8159-0.13531-0.26321-0.0856-1.1329 0.0739-1.2924 9e-3 -0.0089 0.0187-0.0137 0.0295-0.01499zm-1.9684 0.92656c0.0813-0.0034 0.1979 0.18026 0.40049 0.58963 0.16571 0.33481 0.54478 0.90964 0.84233 1.2769l0.54105 0.66766-0.27026 0.28164c-0.1485 0.15499-0.29443 0.28002-0.32453 0.27802-0.0878-0.0066-0.80984-0.95433-1.1012-1.4454-0.26445-0.44577-0.33807-0.9597-0.20722-1.448 0.0345-0.12868 0.0706-0.19845 0.11937-0.2005zm-2.2391 1.1503c0.0339 1.2e-4 0.19255 0.25056 0.35244 0.55656 0.1599 0.306 0.54332 0.82638 0.85214 1.1565 0.30883 0.33015 0.56172 0.64133 0.56172 0.69143 0 0.05011-0.12342 0.20881-0.27388 0.35295l-0.27337 0.262-0.52968-0.63975c-0.66345-0.80099-0.86258-1.1682-0.86558-1.6009-3e-3 -0.38893 0.0851-0.77917 0.17621-0.77876zm-2.4541 1.4805c0.0644-0.01812 0.15163 0.12375 0.30902 0.45527 0.12411 0.2614 0.46314 0.76128 0.75345 1.111 0.2903 0.34975 0.52813 0.67559 0.52813 0.72399 0 0.04843-0.12501 0.20788-0.2775 0.35398l-0.27699 0.26562-0.35967-0.43873c-0.75497-0.92127-0.97073-1.5521-0.77773-2.2722 0.0321-0.11992 0.0626-0.18808 0.10129-0.19895zm-1.8505 1.203c0.0515-0.0027 0.12474 0.13556 0.3023 0.48731 0.16349 0.32388 0.47671 0.81503 0.69557 1.0919 0.21887 0.27688 0.39791 0.52864 0.39791 0.55914 0 0.03053-0.0962 0.18511-0.21343 0.34365-0.11721 0.15854-0.24533 0.28836-0.28473 0.28836s-0.28-0.31376-0.53486-0.69712c-0.49175-0.7397-0.6476-1.4097-0.44958-1.9322 0.033-0.08707 0.0559-0.13944 0.0868-0.14108zm23.554 1.71c0.066-0.02046 0.0297 0.30974-0.13695 0.85835-0.4544 1.496-1.8376 2.7446-3.807 3.4365v5.16e-4c-0.61294 0.21532-2.1565 0.31231-2.7972 0.1757-0.22592-0.04817-0.94918-0.31433-1.6071-0.59118-1.6134-0.67884-2.177-0.7228-3.8752-0.30282-1.7187 0.42505-2.1129 0.45477-3.4112 0.25683-0.61463-0.09372-1.4244-0.19899-1.7994-0.23409l-0.68161-0.06408 0.38964-0.12609c0.23563-0.07638 1.0521-0.1396 2.0665-0.1602 1.5366-0.03111 1.7735-0.06058 2.8246-0.35192 0.98144-0.27204 1.3094-0.31894 2.2676-0.32194 1.0837-0.0037 1.1487 0.0083 1.9968 0.36794 1.5929 0.67539 2.27 0.8653 3.1166 0.8723 0.95464 0.0084 1.6408-0.1448 2.5327-0.56637 1.3313-0.62928 2.2532-1.5881 2.698-2.805 0.10736-0.29372 0.18366-0.43214 0.22325-0.44442zm-77.231 2.7699c-0.14518-6e-3 -0.23338 2e-3 -0.25735 0.02636-0.85702 0.85702-4.5952 8.8659-5.6782 12.165-4.3394 13.219-3.5426 25.642 2.4515 38.239h-5.16e-4c1.834 3.8543 3.4104 6.2179 3.8525 5.7759 0.0935-0.0935-0.35843-2.7829-1.0046-5.9759-2.8023-13.847-0.89181-29.586 4.5589-37.554 1.3354-1.9521 1.5221-1.9841 6.5913-1.1219 0.97018 0.16501 2.1201 0.40165 3.3094 0.67025 1.4671-2.7222 3.0323-5.6259 3.8432-8.4512-1.2924-0.26497-3.6997-0.83405-8.415-1.9425-4.4081-1.0363-8.2348-1.7877-9.2511-1.8309zm74.661 3.2561c0.0186 0.0058 3e-3 0.04097-0.0403 0.10232-0.23522 0.33582-1.1348 1.063-1.6164 1.3069-0.24628 0.12472-0.68571 0.29714-0.97668 0.38344v5.16e-4c-0.93613 0.27776-2.0859 0.20258-3.6592-0.23926-1.1045-0.31021-1.5301-0.38416-2.2402-0.39016l-0.87643-0.0067 0.58446-0.23203c0.81869-0.32449 1.786-0.31854 3.1967 0.01912 2.051 0.49091 3.6395 0.27135 5.2121-0.72037 0.25784-0.16261 0.38501-0.23348 0.41599-0.22376zm-15.099 0.43667c0.0246 0.01461-0.0465 0.09798-0.20309 0.23461-0.45422 0.39637-1.5661 0.9487-2.2888 1.1369-0.72365 0.18838-2.4986 0.25853-3.4091 0.13488-0.37499-0.0509-1.383-0.20202-2.2402-0.3359-2.3658-0.3696-4.627-0.49825-6.256-0.35657-0.7377 0.06416-1.451 0.14278-1.5849 0.17518-0.24185 0.05854-0.24204 0.05822-0.0377-0.09405 0.73157-0.54525 2.3132-0.84329 4.4581-0.84129 1.4969 0.0018 2.4074 0.08874 4.5894 0.43667 1.4077 0.22457 3.4544 0.29492 4.4287 0.15245 0.69766-0.10202 1.817-0.38741 2.4867-0.63407 0.0298-0.01098 0.0486-0.01365 0.0568-0.0088zm4.7057 0.16175c0.0871 0.10392-2.6525 2.5586-3.2303 2.8944-0.7375 0.42865-1.9458 0.89004-2.342 0.89504-0.22063 2e-3 -0.2354 0.0182-0.0956 0.0997 0.26641 0.15534 2.1095-0.0611 2.9745-0.34933 0.4153-0.13837 0.92384-0.36227 1.1296-0.49713 0.57239-0.37507 0.53522-0.20075-0.0517 0.24237-0.73671 0.55623-1.7015 0.98115-2.5838 1.1384-1.3093 0.2334-2.908 0.12971-4.5036-0.29197-0.34573-0.0914-1.6614-0.55469-2.9238-1.0299-2.0196-0.76021-2.9792-1.0568-4.6778-1.4438-0.80647-0.18378 1.817-0.0111 2.8732 0.18913 0.5357 0.10154 1.5879 0.36272 2.3378 0.58033 2.0293 0.589 3.2065 0.74391 4.5289 0.59686 1.8775-0.20877 2.7877-0.58634 5.1129-2.1224 0.78153-0.51625 1.4347-0.92185 1.4516-0.90175zm-21.813 6.7417c0.033-6e-3 0.1416 0.18554 0.38912 0.64854 1.054 1.9716 2.8417 3.3378 5.1873 3.9646 0.82619 0.22078 1.1582 0.25551 2.4644 0.26251 1.288 6e-3 1.6315-0.0257 2.3378-0.21755 1.9597-0.53231 3.0736-1.1559 4.4034-2.4644 0.52437-0.51598 0.95343-0.9084 0.95343-0.8723s-0.22471 0.43111-0.49971 0.87798c-1.0732 1.7438-2.5432 2.8157-4.6338 3.3796-0.80167 0.21623-1.2025 0.26284-2.512 0.29094-2.0204 0.0434-2.8786-0.14116-4.4602-0.95912-1.7386-0.89915-3.3504-2.9915-3.6215-4.701-0.0207-0.13073-0.0281-0.20591-8e-3 -0.20981zm21.906 1.3612c0.0233-0.0233 0.26013 0.0919 0.52658 0.2558 1.197 0.73651 2.7634 1.2718 3.7228 1.2718 0.2938 0 0.41172 0.0441 0.45062 0.17001 0.029 0.0937 0.11457 0.31321 0.19017 0.48731 0.15697 0.36158 0.18707 0.35357-0.83406 0.22169-1.1921-0.15396-2.3023-0.70943-3.3517-1.6764-0.41071-0.37843-0.72765-0.70689-0.70435-0.73019zm41.822 3.3393c-0.22705-2e-5 -1.277 2.3457-2.3332 5.2126-2.3583 6.4009-5.5276 11.88-8.7183 15.07l-2.4122 2.4117-5.9247-1.5451c-5.4201-1.4137-10.829-3.2482-14.268-4.7506-1.4646 2.675-2.7092 5.6788-5.0188 6.9107-0.24051 0.12828-0.47749 0.2395-0.71314 0.3421 0.94168 0.34405 2.2136 0.90996 3.8034 1.6676 6.1851 2.9476 13.533 5.4328 20.149 6.8146 4.8413 1.0112 5.0217 0.9847 6.4001-0.94413 6.24-8.7315 9.34-17.117 9.4046-25.439 0.0245-3.163-0.14139-5.7511-0.36846-5.7511zm-68.002 2.667c0.0581-0.048 0.15442 0.48353 0.20516 1.3121 0.24485 4.0018-1.7506 6.9322-6.257 9.1886-1.4451 0.72354-2.976 1.7412-3.9098 2.5988-1.3475 1.2376-2.6163 3.1897-3.1874 4.9046-0.93309 2.8018-0.65102 5.8616 0.73845 8.0114 0.72184 1.1168 1.8743 2.1957 3.6882 3.4525 1.9975 1.384 2.7943 2.1904 3.3832 3.4246 0.64563 1.353 0.62325 2.7718-0.0661 4.1724-0.15914 0.3233-0.4051 0.69635-0.54674 0.82838l-0.25786 0.23978 0.20412-0.34727c0.54038-0.92165 0.78885-2.2591 0.60513-3.2566-0.28817-1.5647-1.2528-2.6804-3.8086-4.4049-1.7951-1.2112-2.8606-2.138-3.5822-3.1176-1.3708-1.8609-1.9097-3.5513-1.9017-5.9671 4e-3 -1.2531 0.03819-1.5419 0.30334-2.5606 0.6429-2.47 1.9658-4.5907 4.0085-6.426 1.0288-0.9243 1.8352-1.4384 3.8504-2.4562 0.96426-0.48698 2.0377-1.0768 2.3859-1.3105 0.97684-0.65559 2.211-1.9699 2.7533-2.9321 0.7549-1.3394 1.3283-3.4321 1.3436-4.9031 3e-3 -0.28799 0.0216-0.42931 0.0481-0.45114zm26.86 21.553c-2.2876 0.50046-4.4511 0.11394-6.8957 0.21756-1.9031 1.0552-1.7443 3.8865-2.0908 6.1014 0.56895 3.0909 2.9599 5.8191 5.2493 8.3995-0.0712-0.34021-0.13863-0.67412-0.21445-1.0211-1.1435-5.2331-1.9539-9.5131-1.8009-9.5121 0.15308 1e-3 2.837 3.286 5.9645 7.2993l5.6865 7.2972-1.4697 2.0402c-3.4407 4.7764-12.269 10.187-22.164 13.585-6.2676 2.1522-5.387 2.7373 2.945 1.9575 9.9886-0.93486 21.646-6.0275 29.834-13.033l4.0209-3.4406-9.94-9.9405c-5.3435-5.3435-8.3209-8.5036-9.1245-9.9503zm-15.094 20.001c-1.105 0.92102-2.9164 1.9842-4.3274 2.5141-7.4463 2.7962-21.916 4.0309-31.413 2.6799-2.6455-0.37632-5.1934-0.71609-5.6617-0.75499-1.8772-0.15619 6.2333 3.8073 11.29 5.5175 6.7996 2.2996 17.88 2.6765 25.654 0.8723 5.1929-1.2052 15.465-5.4046 17.018-6.9572 0.15182-0.15182 0.12057-1.067-0.0408-2.4298-2.2439 1.5888-6.3163 2.1891-8.7633 0.90693-1.1265-0.59026-2.4057-1.4185-3.7564-2.3487z" stroke-width=".6808"/>
 </g>
</svg>
